<?xml version="1.0" encoding="UTF-8" standalone="no"?>
<svg width="47px" height="45px" viewBox="0 0 47 45" version="1.1" xmlns="http://www.w3.org/2000/svg" xmlns:xlink="http://www.w3.org/1999/xlink">
    <!-- Generator: Sketch 3.7.2 (28276) - http://www.bohemiancoding.com/sketch -->
    <title>clock</title>
    <desc>Created with Sketch.</desc>
    <defs></defs>
    <g id="Page-1" stroke="none" stroke-width="1" fill="none" fill-rule="evenodd" opacity="0.9">
        <g id="Desktop-HD" transform="translate(-34.000000, -403.000000)" fill="#FFFFFF">
            <g id="menu" transform="translate(34.000000, 329.000000)">
                <g id="grafiek">
                    <g id="clock" transform="translate(0.000000, 74.000000)">
                        <g id="Capa_1">
                            <g id="history">
                                <path d="M24.675,0.0694444444 C16.45,0.0694444444 9.165,4.55555556 5.405,11.4027778 L0,5.97222222 L0,21.3194444 L15.275,21.3194444 L8.695,14.7083333 C11.75,8.80555556 17.625,4.79166667 24.675,4.79166667 C34.31,4.79166667 42.3,12.8194444 42.3,22.5 C42.3,32.1805556 34.31,40.2083333 24.675,40.2083333 C16.92,40.2083333 10.575,35.25 7.99,28.4027778 L3.055,28.4027778 C5.64,37.8472222 14.335,44.9305556 24.675,44.9305556 C37.13,44.9305556 47,34.7777778 47,22.5 C47,10.2222222 36.895,0.0694444444 24.675,0.0694444444 L24.675,0.0694444444 Z M21.15,11.875 L21.15,23.9166667 L32.195,30.5277778 L34.075,27.4583333 L24.675,21.7916667 L24.675,11.875 L21.15,11.875 L21.15,11.875 Z" id="Shape"></path>
                            </g>
                        </g>
                    </g>
                </g>
            </g>
        </g>
    </g>
</svg>