<!DOCTYPE svg PUBLIC "-//W3C//DTD SVG 1.1//EN" "http://www.w3.org/Graphics/SVG/1.1/DTD/svg11.dtd">
<svg xmlns="http://www.w3.org/2000/svg" xmlns:xlink="http://www.w3.org/1999/xlink" version="1.1" width="576" height="448" viewBox="0 0 576 448">
<g id="icomoon-ignore">
</g>
<path d="M190.5 288h-78.5q-10 0-14.375-8.75t1.625-16.75l47-62.75q-16.25-7.75-34.25-7.75-33 0-56.5 23.5t-23.5 56.5 23.5 56.5 56.5 23.5q28.75 0 50.75-18.125t27.75-45.875zM144 256h46.5q-4.5-21.25-18.75-37zM264 256l72-96h-120l-24.75 33q26.25 25.75 31.5 63h41.25zM544 272q0-33-23.5-56.5t-56.5-23.5q-15 0-30.25 6l43.5 65q3.75 5.75 2.5 12.25t-6.75 10q-3.75 2.75-9 2.75-8.75 0-13.25-7.25l-43.5-65q-23.25 23.75-23.25 56.25 0 33 23.5 56.5t56.5 23.5 56.5-23.5 23.5-56.5zM576 272q0 46.25-32.875 79.125t-79.125 32.875-79.125-32.875-32.875-79.125q0-24.25 9.875-45.875t27.375-37.375l-16.25-24.5-88.25 117.25q-4.5 6.5-12.75 6.5h-49.25q-5.75 41-37.25 68.5t-73.5 27.5q-46.25 0-79.125-32.875t-32.875-79.125 32.875-79.125 79.125-32.875q28.5 0 53.75 13.75l34.25-45.75h-56q-6.5 0-11.25-4.75t-4.75-11.25 4.75-11.25 11.25-4.75h96v32h108.75l-21.25-32h-55.5q-6.5 0-11.25-4.75t-4.75-11.25 4.75-11.25 11.25-4.75h64q8.25 0 13.25 7l66.75 100q22.75-11 48-11 46.25 0 79.125 32.875t32.875 79.125z"/>
</svg>
