<!DOCTYPE svg PUBLIC "-//W3C//DTD SVG 1.1//EN" "http://www.w3.org/Graphics/SVG/1.1/DTD/svg11.dtd">
<svg xmlns="http://www.w3.org/2000/svg" xmlns:xlink="http://www.w3.org/1999/xlink" version="1.1" width="24" height="24" viewBox="0 0 24 24" data-code="59381" data-tags="notifications_none">
    <g fill="#fff" transform="scale(0.0234375 0.0234375)"><path d="M682 726v-256c0-106-64-192-170-192s-170 86-170 192v256h340zM768 682l86 86v42h-684v-42l86-86v-212c0-132 70-240 192-270v-30c0-36 28-64 64-64s64 28 64 64v30c122 30 192 140 192 270v212zM512 938c-46 0-86-38-86-84h172c0 46-40 84-86 84z"/></g><link rel="stylesheet" type="text/css" href="blob:https://icomoon.io/ea061135-8510-43b5-95be-21c610064637" data-jsbAllowAndIgnore="WbF6Aa3QdvABCzJ"/></svg>
